<?xml version="1.0" standalone="no"?><!DOCTYPE svg PUBLIC "-//W3C//DTD SVG 1.1//EN" "http://www.w3.org/Graphics/SVG/1.1/DTD/svg11.dtd"><svg t="1679382316783" class="icon" viewBox="0 0 1024 1024" version="1.1" xmlns="http://www.w3.org/2000/svg" p-id="14426" xmlns:xlink="http://www.w3.org/1999/xlink" width="128" height="128"><path d="M869.7 806.9c0-39.9-32.3-72.2-72.2-72.2-39.9 0-72.2 32.3-72.2 72.2v14.4c0 0.7 0.2 1.4 0.2 2.1-4.7-1.2-9.6-2.1-14.6-2.1-31.9 0-57.7 25.8-57.7 57.7 0 39.9-32.3 72.2-72.2 72.2s-72.2-32.3-72.2-72.2l-2.4 18.4c-8.1 31-36.3 53.8-69.8 53.8-39.9 0-72.2-32.3-72.2-72.2 0-31.9-25.9-57.7-57.7-57.7-5.1 0-9.9 0.8-14.6 2.1 0-0.7 0.2-1.4 0.2-2.1v-14.4c0-39.9-32.3-72.2-72.2-72.2-39.9 0-72.2 32.3-72.2 72.2-51.6 4.5-87.7 48.2-87.7 101v57.7h897V908c0.2-52.8-35.8-96.6-87.5-101.1z m0 0" fill="#74A2CA" p-id="14427"></path><path d="M436.8 273L509 85.4 581.1 273H436.8z m0 0" fill="#206BAB" p-id="14428"></path><path d="M508.9 85.4L436.8 273h72.1" fill="#74A2CA" p-id="14429"></path><path d="M436.8 273h144.3v433H436.8z" fill="#F0BB5D" p-id="14430"></path><path d="M508.9 273h72.2v433h-72.2z" fill="#EEAC38" p-id="14431"></path><path d="M422.3 734.8h173.2v28.9H422.3z m43.3 43.3h86.6V807h-86.6z m28.9 43.3h28.9v28.9h-28.9z" fill="#1C1C1A" p-id="14432"></path><path d="M881.8 795.7c-5.5-42.5-41.9-75.4-85.8-75.4-47.7 0-86.6 38.8-86.6 86.6-39.1 0.8-70.6 32.9-70.6 72.1 0 31.8-25.9 57.7-57.7 57.7-31.8 0-57.7-25.9-57.7-57.7h-28.9c0 31.8-25.9 57.7-57.7 57.7-31.8 0-57.7-25.9-57.7-57.7 0-39.8-32.4-72.2-72.2-72.2 0-47.7-38.8-86.6-86.6-86.6-43.9 0-80.3 32.9-85.8 75.4C83.8 807.9 46 853.6 46 908v57.7h28.9V908c0-47.7 38.8-86.6 86.6-86.6S248 860.2 248 908h28.9c0-16.4-3.5-32.1-9.7-46.2 6.8-15.5 22.2-25.9 39.7-25.9 23.9 0 43.3 19.4 43.3 43.3 0 47.7 38.8 86.6 86.6 86.6 30.1 0 56.6-15.4 72.2-38.8 15.5 23.4 42.1 38.8 72.2 38.8 47.7 0 86.6-38.8 86.6-86.6 0-23.9 19.4-43.3 43.3-43.3 16.8 0 31.7 9.6 38.9 24.2-6.7 14.6-10.5 30.8-10.5 47.9h28.9c0-47.7 38.8-86.6 86.6-86.6 47.7 0 86.6 38.8 86.6 86.6v57.7h28.9V908c-0.2-54.4-38-100.1-88.7-112.3z m-631.5 38.6c-20.6-24.8-51.4-40.9-85.9-41.7 6.4-24.9 29-43.4 55.9-43.4 31.8 0 57.7 25.9 57.7 57.7v6c-10.8 4.8-20.4 12.1-27.7 21.4z m516.5-0.9c-7.6-9.3-17.4-16.5-28.5-21.1v-5.4c0-31.8 25.9-57.7 57.7-57.7 26.9 0 49.5 18.5 55.9 43.4-34.1 0.8-64.5 16.5-85.1 40.8z m0 0" fill="#1C1C1A" p-id="14433"></path><path d="M494.5 431.7h28.9v28.9h-28.9z m0 57.8h28.9v28.9h-28.9z m0 57.7h28.9v28.9h-28.9zM494.5 604.9h28.9v28.9h-28.9z" fill="#FFFFFF" p-id="14434"></path><path d="M508.9 45.2l-86.6 225.1v450.1h173.2V270.3L508.9 45.2z m-51.1 213.3l51.1-133 51.1 133H457.8z m36.7 28.9v115.5h28.9V287.4h43.3v404.1h-43.3v-28.9h-28.9v28.9h-43.3V287.4h43.3z m0 0" fill="#1C1C1A" p-id="14435"></path></svg>